<?xml version="1.0" encoding="UTF-8"?>
<svg id="_レイヤー_2" data-name="レイヤー 2" xmlns="http://www.w3.org/2000/svg" viewBox="0 0 127.568629 53.4954439">
  <defs>
    <style>
      .cls-1 {
        fill: #c61d1e;
      }

      .cls-1, .cls-2, .cls-3 {
        stroke-width: 0px;
      }

      .cls-2 {
        fill: #1e2b69;
      }

      .cls-3 {
        fill: #221714;
      }
    </style>
  </defs>
  <g id="_レイヤー_1-2" data-name="レイヤー 1">
    <g>
      <g>
        <path class="cls-2" d="m15.8113191,26.3360902h2.5646315c.8292087,0,1.892584.1386098,1.892584,1.13023v8.919282s-2.8849042,1.058874-8.096423,1.058874c-5.2087187,0-12.1721115-2.8681029-12.1721115-10.811915,0-7.9389117,7.2644142-11.0292804,12.6299439-11.0292804,2.4221714,0,5.4418352.1428101,5.4418352,1.5019563v2.6517876c-2.0385443-1.6633177-2.8660028-1.971739-5.9633721-1.971739-3.1099701,0-8.6718638,2.0350935-8.6718638,8.6673628,0,6.5979668,7.4576278,10.5378456,13.6667173,8.0442692v-5.0628075c0-1.0619259-.0840059-3.0980199-1.2919414-3.0980199Z"/>
        <path class="cls-2" d="m54.7589257,36.9040379h6.5717151c-1.8103281-.6800981-2.5646315-2.8653027-3.1733246-4.4575654-.6118433-1.5810619-5.3704301-13.1521806-5.8888168-14.7405929-.5404383-1.5842121-1.2838909-1.5842121-1.9037847-1.5842121h-3.7627663c1.8068279.607993.8113574,1.8925839.5103361,2.7976984-.296471.9010133-6.6431202,16.6363766-6.6431202,16.6363766-2.1971055-.6044928-7.728897-8.6974154-7.728897-8.6974154,7.3340691-2.1102993,6.2150399-10.7366596-.9734189-10.7366596h-8.2423834c1.667518.3759266,1.5170074,2.1218501,1.5170074,3.4809963v14.2855607c0,1.9608387-.607293,2.4973776-1.5884124,3.0158134h6.0424777c-1.6598175-.7515032-1.2173862-2.4935764-1.2173862-3.3231351v-15.4126405h3.2604808c1.7469736,0,3.0228139,2.1183499,3.0228139,3.5559016,0,2.3287148-1.8211789,3.2415794-3.6234565,3.9178272-1.8215289.679048-.833759,2.1929052,0,3.3983904.8288587,1.2131858,3.2447297,4.6220279,4.6934822,6.2864448,1.4312513,1.6636677,2.7182924,1.5772116,3.3952403,1.5772116h5.4414851c-2.1064491-.6720475-.9765691-2.3276647-.6797481-3.1614237.3090719-.8379593,1.6643678-4.3907107,1.6643678-4.3907107h8.1646779s.9874199,2.5646315,1.892584,4.8439927c.9163649,2.2569597.2170154,2.5614812-.7511532,2.7081416Zm-8.4726997-9.9711555l3.0973692-8.0887223,3.3318858,8.0887223h-6.429255Z"/>
        <path class="cls-2" d="m120.9776625,36.9040379h6.5909665c-1.8260792-.6800981-2.5758323-2.8653027-3.1764748-4.4575654-.6009925-1.5810619-5.3718302-13.1521806-5.8965173-14.7405929-.5344878-1.5842121-1.2775904-1.5842121-1.8974843-1.5842121h-3.772567c1.8246791.607993.8292087,1.8925839.5215369,2.7976984-.3010213.9010133-6.654321,16.6363766-6.654321,16.6363766-.4214298.9877699-1.0413237,1.0024709-1.4312513,1.3482954h5.4449854c-2.1179999-.6720475-.9846197-2.3276647-.6832484-3.1614237.2996212-.8379593,1.6706682-4.3907107,1.6706682-4.3907107h8.1615277s.9954705,2.5646315,1.8988844,4.8439927c.9020138,2.2569597.2187655,2.5614812-.776705,2.7081416Zm-8.4562485-9.9711555l3.0973692-8.0887223,3.3238353,8.0887223h-6.4212045Z"/>
        <path class="cls-2" d="m97.7213165,37.2908153c.7543034-.6832483,1.4375517-1.2167352,1.4375517-3.6284059v-14.2890118c0-1.1298799-.0871562-2.4260216-1.4375517-2.8758035h5.8093612c-.6006425.5362379-1.3188933,1.2082855-1.3188933,2.7294931v14.4353222c0,1.2888403-.2632186,3.1821243,1.4042994,3.6284059h-5.8947672Z"/>
        <path class="cls-2" d="m66.3965494,20.9548095s-.0745553,11.4125083-.0745553,12.7076c0,1.2888403.1536609,3.1821243,1.8166286,3.6284059h-5.524091c.7704045-.6832483,1.3598462-1.2167352,1.3598462-3.6284059,0-2.4140717.1617114-13.1657824.1617114-14.2890118,0-1.1298799-.1617114-2.4260216-1.5215577-2.8758035h4.2479007l12.6936484,15.9488784v-12.9936193c0-.8376093.1536609-2.4190212-1.5852622-3.0235139h5.6669011c-.6720476.5180367-1.6724184.7511531-1.6724184,2.9440583v18.7581772s-1.5772116.2894705-4.1418432-2.8047484c-2.5789825-3.0942189-11.4269088-14.3720169-11.4269088-14.3720169Z"/>
        <path class="cls-1" d="m102.5271567,53.3867041c-16.6258267-14.0153906-22.9899772-30.5092086-.2471175-53.015451.7133505-.7130004,1.3885483-.2891205.8288587.3489747-9.9669554,11.3981568-21.0865425,29.6260961-.2282162,51.9720272.3234229.3377739.2030144,1.0812265-.353525.6944491Z"/>
      </g>
      <g>
        <path class="cls-3" d="m46.6120991,8.9073071c.9016638-.4501816,1.3678968-1.201635,1.6055636-1.8925839l.862461.1053076c-.0794556.1838128-.1347595.341674-.2695191.5856412h1.2047853c.0077005.0339026.0269519.1879135.0332524.2177154l.904814-.1393099c-.0777055.6275446-.2583183,1.2435882-.5659901,1.8071281-.7588537,1.3630462-1.7956271,1.7197214-3.0606166,1.9377869l-.3265731-.7592037c1.2730401-.1610114,2.4900762-.551639,2.9738105-2.3126634h-1.6405661c-.5264373.6640468-1.0003708.9269154-1.2061854,1.0508241l-.5152365-.6006425Zm3.5506513-1.1645324c-.0238017-.1424601-.1396599-.6044928-.1998641-.7655042l.4389311-.0682548c.1015072.2520178.1729122.5033356.2331165.7553534l-.4721834.0784055Zm.6972493-.0973069c-.0444531-.2180654-.0966068-.4280803-.2107149-.7214509l.4469816-.0671549c.0952067.2369668.1855131.5334377.2219157.7102002l-.4581824.0784055Z"/>
        <path class="cls-3" d="m58.4383861,8.4571255c-.169762,1.6784185-.8225582,2.8461011-3.3983905,3.0305642l-.2439673-.7473029c1.7578244-.0714051,2.4456231-.5635399,2.6738392-1.5439592h-3.2114773v-.7393021h4.1799959Zm-.3342737-1.2397379v.7473029h-3.4666454v-.7473029h3.4666454Z"/>
        <path class="cls-3" d="m63.1938227,8.7795481c-.4693832-.3224226-1.044824-.6006425-1.5901625-.7774548l.3692761-.6943993c.6723976.2030144,1.2047853.4543321,1.6552672.7284015l-.4343807.7434526Zm-1.5170074,1.8022278c1.892584-.1610114,2.9703102-.8137579,3.5695526-2.936308l.7672543.3867774c-.8005067,2.6699889-2.3777183,3.1733245-4.0676379,3.4134415l-.2691691-.8639108Z"/>
        <path class="cls-3" d="m70.5121407,9.6353586c-.4389311-.2401667-.9541675-.4427813-1.4900555-.5887417l.2807199-.6769977c.3944779.0875062,1.0332731.28637,1.5184075.5453884l-.3090719.720351Zm-1.2205364.961518c1.5849122-.1386098,2.7011412-.4351305,3.3871897-2.7375437l.7564035.367876c-.8166078,2.4267217-2.0591957,3.0084629-3.9265779,3.2415794l-.2170154-.8719117Zm1.6594675-2.1740038c-.4910848-.2558681-1.0143718-.42388-1.5422092-.5554893l.2884204-.6688973c.4851343.0903064,1.0857768.2670689,1.5740614.5071859l-.3202727.7172007Z"/>
        <path class="cls-3" d="m76.5654691,10.9020982c.4137293-.1698117,1.285641-.5040357,1.4995061-1.6234149.0794556-.3787268.070005-.6909489.070005-.9573177l.8414596.0042003c-.0063004.2170154-.014351.3787268-.0444531.6569965.3790768-.1802628.7595538-.4399811.9954705-.9916202h-3.4015408v-.7735547h4.4306136c-.1540109,1.2397379-.6611968,1.8894337-1.5030064,2.3777182l-.5327377-.5484888c-.1361596,1.0248725-.465883,1.8246791-1.8288794,2.4963766l-.5264373-.6408953Z"/>
      </g>
    </g>
  </g>
</svg>