<?xml version="1.0" encoding="UTF-8"?>
<svg id="_レイヤー_2" data-name="レイヤー 2" xmlns="http://www.w3.org/2000/svg" viewBox="0 0 196.0027007 18.7332591">
  <defs>
    <style>
      .cls-1 {
        fill: #a69a7f;
        stroke-width: 0px;
      }

      .cls-2 {
        fill: none;
        stroke: #a69a7f;
        stroke-miterlimit: 10;
      }
    </style>
  </defs>
  <g id="_レイヤー_1-2" data-name="レイヤー 1">
    <g>
      <polygon class="cls-2" points=".5 .5 .5 18.2332591 6.4325812 18.2332591 6.4325812 14.5576381 17.9753207 14.5576381 17.9753207 .5 .5 .5"/>
      <line class="cls-2" x1="11.4020486" y1=".5" x2="11.4020486" y2="7.619884"/>
      <line class="cls-2" x1="7.137285" y1="7.619884" x2="14.5186067" y2="7.619884"/>
      <line class="cls-2" x1="16.6837944" y1="7.619884" x2="17.9753207" y2="7.619884"/>
      <line class="cls-2" x1="12.3976289" y1="9.2157155" x2="12.3976289" y2="7.619884"/>
      <line class="cls-2" x1="8.3513423" y1="9.2157155" x2="8.3513423" y2="7.619884"/>
      <line class="cls-2" x1="12.3973992" y1="14.5501744" x2="12.3973992" y2="11.329188"/>
      <line class="cls-2" x1="8.3511126" y1="14.5501744" x2="8.3511126" y2="11.329188"/>
      <line class="cls-2" x1=".5057653" y1="7.619884" x2="5.0692043" y2="7.619884"/>
    </g>
    <polyline class="cls-1" points="196.0027007 6.8108046 190.891051 11.9224544 185.7794012 6.8108046"/>
    <g>
      <path class="cls-1" d="m33.135338,13.8295202l1.2207031-.7324219c.859375,1.5820312,1.8520508,2.3730469,2.9785156,2.3730469.4814453,0,.934082-.1123047,1.3574219-.3369141.4228516-.2246094.7451172-.5253906.9667969-.9033203.2211914-.3774414.3320312-.777832.3320312-1.2011719,0-.4814453-.1630859-.9536133-.4882812-1.4160156-.4492188-.6376953-1.2695312-1.40625-2.4609375-2.3046875-1.1982422-.9047852-1.9433594-1.559082-2.2363281-1.9628906-.5078125-.6767578-.7617188-1.4091797-.7617188-2.1972656,0-.625.1494141-1.1943359.4492188-1.7089844.2993164-.5141602.7207031-.9194336,1.2646484-1.2158203.543457-.2958984,1.1342773-.4443359,1.7724609-.4443359.6767578,0,1.3100586.1679688,1.8994141.5029297.5888672.3354492,1.2124023.9521484,1.8701172,1.8505859l-1.171875.8886719c-.5405273-.7158203-1.0009766-1.1879883-1.3818359-1.4160156-.3808594-.2275391-.7958984-.3417969-1.2451172-.3417969-.5795898,0-1.0532227.1757812-1.4208984.5273438-.3681641.3515625-.5517578.784668-.5517578,1.2988281,0,.3125.0649414.6152344.1953125.9082031.1298828.2929688.3676758.6123047.7128906.9570312.1884766.1826172.8071289.6611328,1.8554688,1.4355469,1.2431641.9179688,2.0961914,1.7353516,2.5585938,2.4511719.4619141.7163086.6933594,1.4355469.6933594,2.1582031,0,1.0419922-.3955078,1.9467773-1.1865234,2.7148438-.7910156.7685547-1.7529297,1.1523438-2.8857422,1.1523438-.8725586,0-1.6635742-.2329102-2.3730469-.6982422-.7099609-.465332-1.3642578-1.2451172-1.9628906-2.3388672Z"/>
      <path class="cls-1" d="m55.8013536,12.9799108l1.1523438.6054688c-.3779297.7421875-.8144531,1.3413086-1.3095703,1.796875-.4956055.4560547-1.0527344.8027344-1.671875,1.0400391-.6191406.237793-1.3193359.3564453-2.1015625.3564453-1.7333984,0-3.0883789-.5678711-4.065918-1.7041016-.9775391-1.1357422-1.4663086-2.4199219-1.4663086-3.8525391,0-1.3476562.4135742-2.5488281,1.2412109-3.6035156,1.0488281-1.3408203,2.453125-2.0117188,4.2128906-2.0117188,1.8115234,0,3.2578125.6870117,4.3398438,2.0605469.7685547.9702148,1.159668,2.1811523,1.1728516,3.6328125h-9.5605469c.0258789,1.234375.4204102,2.2460938,1.1831055,3.0351562s1.7045898,1.1835938,2.8256836,1.1835938c.5410156,0,1.0673828-.09375,1.5791016-.2822266.5117188-.1875.9462891-.4375,1.3051758-.7490234.3583984-.3110352.746582-.8134766,1.1635742-1.5078125Zm0-2.8613281c-.1826172-.7290039-.4482422-1.3115234-.796875-1.7480469-.3486328-.4360352-.8100586-.7875977-1.3837891-1.0546875-.5732422-.2666016-1.1762695-.4003906-1.8085938-.4003906-1.0429688,0-1.9394531.3354492-2.6889648,1.0058594-.5473633.4882812-.9614258,1.2207031-1.2416992,2.1972656h7.9199219Z"/>
      <path class="cls-1" d="m72.666588,8.0873327l-1.0839844.6738281c-.9365234-1.2431641-2.2143555-1.8652344-3.8334961-1.8652344-1.2939453,0-2.3686523.4165039-3.2236328,1.2490234-.8549805.8320312-1.2827148,1.8432617-1.2827148,3.0332031,0,.7739258.1967773,1.5024414.5898438,2.1850586.3935547.6831055.9335938,1.2128906,1.6196289,1.590332.6860352.3769531,1.4545898.5654297,2.3066406.5654297,1.5605469,0,2.8354492-.621582,3.8237305-1.8652344l1.0839844.7128906c-.5078125.7646484-1.1899414,1.3583984-2.0458984,1.7797852-.8564453.4213867-1.8310547.6323242-2.9248047.6323242-1.6796875,0-3.0732422-.5336914-4.1796875-1.6015625-1.1069336-1.0673828-1.6601562-2.3662109-1.6601562-3.8964844,0-1.0283203.2587891-1.9838867.7763672-2.8662109.5175781-.8818359,1.2285156-1.5703125,2.1337891-2.0654297.9047852-.4946289,1.9169922-.7421875,3.0371094-.7421875.703125,0,1.3818359.1074219,2.0361328.3222656s1.2089844.4951172,1.6650391.8398438c.4555664.3452148.8427734.784668,1.1621094,1.3183594Z"/>
      <path class="cls-1" d="m78.9849474,1.9349889h1.3671875v3.9453125h2.1679688v1.1816406h-2.1679688v9.4433594h-1.3671875V7.061942h-1.8652344v-1.1816406h1.8652344V1.9349889Z"/>
      <path class="cls-1" d="m87.5445177,1.5053014c.3110352,0,.5771484.1108398.7973633.3320312.2202148.2216797.3305664.4882812.3305664.8007812,0,.3061523-.1103516.5698242-.3305664.7910156-.2202148.2216797-.4863281.3320312-.7973633.3320312-.3046875,0-.5673828-.1103516-.7875977-.3320312-.2202148-.2211914-.3305664-.4848633-.3305664-.7910156,0-.3125.1103516-.5791016.3305664-.8007812.2202148-.2211914.4829102-.3320312.7875977-.3320312Zm-.6787109,4.375h1.3671875v10.625h-1.3671875V5.8803014Z"/>
      <path class="cls-1" d="m98.604088,5.6068639c1.6367188,0,2.9931641.5927734,4.0698242,1.7773438.9780273,1.0810547,1.4672852,2.3603516,1.4672852,3.8378906,0,1.484375-.5170898,2.7817383-1.5507812,3.8916016-1.0336914,1.1103516-2.3623047,1.6650391-3.9863281,1.6650391-1.6308594,0-2.9628906-.5546875-3.9960938-1.6650391-1.0341797-1.1098633-1.5507812-2.4072266-1.5507812-3.8916016,0-1.4711914.4892578-2.7470703,1.4672852-3.828125,1.0761719-1.1914062,2.4360352-1.7871094,4.0795898-1.7871094Zm-.0048828,1.3378906c-1.1367188,0-2.1137695.4199219-2.9301758,1.2597656-.8168945.8398438-1.2250977,1.8554688-1.2250977,3.046875,0,.7685547.1860352,1.484375.5585938,2.1484375.3720703.6640625.8754883,1.1767578,1.5092773,1.5380859s1.3295898.5419922,2.0874023.5419922,1.4536133-.1806641,2.0874023-.5419922,1.1367188-.8740234,1.5092773-1.5380859c.3720703-.6640625.5585938-1.3798828.5585938-2.1484375,0-1.1914062-.4101562-2.2070312-1.2299805-3.046875s-1.7949219-1.2597656-2.925293-1.2597656Z"/>
      <path class="cls-1" d="m109.1704942,5.8803014h1.3671875v1.9042969c.546875-.7290039,1.1523438-1.2744141,1.8164062-1.6357422s1.3867188-.5419922,2.1679688-.5419922c.7939453,0,1.4990234.2021484,2.1142578.6054688.6152344.4038086,1.0693359.9472656,1.3623047,1.6308594s.4394531,1.7480469.4394531,3.1933594v5.46875h-1.3671875v-5.0683594c0-1.2236328-.0507812-2.0410156-.1523438-2.4511719-.1582031-.703125-.4619141-1.2319336-.9111328-1.5869141-.4492188-.3544922-1.0356445-.5322266-1.7583008-.5322266-.8266602,0-1.5678711.2734375-2.222168.8203125s-1.0859375,1.2241211-1.2939453,2.03125c-.1303711.5273438-.1953125,1.4912109-.1953125,2.890625v3.8964844h-1.3671875V5.8803014Z"/>
    </g>
  </g>
</svg>