<?xml version="1.0" encoding="UTF-8"?>
<svg id="_レイヤー_2" data-name="レイヤー 2" xmlns="http://www.w3.org/2000/svg" viewBox="0 0 197.956376 18.8966404">
  <defs>
    <style>
      .cls-1 {
        fill: #a69a7f;
        stroke-width: 0px;
      }

      .cls-2 {
        fill: none;
        stroke: #a69a7f;
        stroke-miterlimit: 10;
      }
    </style>
  </defs>
  <g id="_レイヤー_1-2" data-name="レイヤー 1">
    <g>
      <g>
        <polyline class="cls-2" points=".3253627 9.5638229 10.7110352 .6633814 20.7421057 9.5638229"/>
        <polyline class="cls-2" points="3.2517626 10.104001 3.2517626 18.3966404 17.8157059 18.3966404 17.8157059 10.104001"/>
        <path class="cls-2" d="m8.3899762,18.3966404v-4.9667792c0-.6168498.5000556-1.1169054,1.1169054-1.1169054h2.0537052c.6168498,0,1.1169054.5000556,1.1169054,1.1169054v4.9667792"/>
        <polyline class="cls-2" points="14.923334 .6633814 17.8497338 .6633814 17.8497338 4.2022835"/>
      </g>
      <polyline class="cls-1" points="197.956376 6.974186 192.8447262 12.0858358 187.7330764 6.974186"/>
      <g>
        <path class="cls-1" d="m35.0987788,2.391339h2.8613281c1.640625,0,2.7470703.0717773,3.3203125.2148438.8203125.2021484,1.4907227.6171875,2.0117188,1.2451172.5205078.628418.78125,1.4179688.78125,2.3681641,0,.9570312-.2539062,1.746582-.7617188,2.3681641-.5078125.6220703-1.2080078,1.0400391-2.0996094,1.2548828-.6513672.15625-1.8686523.234375-3.6523438.234375h-1.0253906v6.6796875h-1.4355469V2.391339Zm1.4355469,1.40625v4.8730469l2.4316406.0292969c.9829102,0,1.7021484-.0888672,2.1582031-.2675781.4555664-.1787109.8134766-.4682617,1.0742188-.8676758.2602539-.3994141.390625-.8461914.390625-1.340332,0-.4804688-.1303711-.9208984-.390625-1.3203125-.2607422-.3994141-.6040039-.684082-1.0302734-.8530273-.4267578-.1689453-1.125-.253418-2.0947266-.253418h-2.5390625Z"/>
        <path class="cls-1" d="m49.0147945,2.0300109h1.3671875v14.7265625h-1.3671875V2.0300109Z"/>
        <path class="cls-1" d="m66.3097163,6.1315734v10.625h-1.3476562v-1.8261719c-.5732422.6967773-1.2158203,1.2207031-1.9287109,1.5722656s-1.4926758.5273438-2.3388672.5273438c-1.5039062,0-2.7880859-.5449219-3.8525391-1.6357422-1.0644531-1.090332-1.5966797-2.4169922-1.5966797-3.9794922,0-1.5297852.5371094-2.8383789,1.6113281-3.9257812,1.0742188-1.0869141,2.3662109-1.6308594,3.8769531-1.6308594.8720703,0,1.6616211.1855469,2.3681641.5566406.7060547.3710938,1.3261719.9277344,1.8603516,1.6699219v-1.953125h1.3476562Zm-5.4638672,1.0449219c-.7607422,0-1.4628906.1870117-2.1069336.5610352s-1.1557617.8989258-1.5366211,1.5756836c-.3798828.6757812-.5703125,1.3916016-.5703125,2.1455078,0,.7480469.1918945,1.4633789.5751953,2.1459961.3837891.6831055.8994141,1.2143555,1.5463867,1.5952148.6469727.3803711,1.3413086.5703125,2.0825195.5703125.7480469,0,1.456543-.1884766,2.1264648-.5654297.6694336-.3774414,1.1850586-.8876953,1.5458984-1.5317383.3608398-.6435547.5415039-1.3686523.5415039-2.175293,0-1.2290039-.4047852-2.2563477-1.2143555-3.0820312-.8095703-.8261719-1.8061523-1.2392578-2.9897461-1.2392578Z"/>
        <path class="cls-1" d="m71.8858882,6.1315734h1.3671875v1.9042969c.546875-.7290039,1.1523438-1.2744141,1.8164062-1.6357422s1.3867188-.5419922,2.1679688-.5419922c.7939453,0,1.4990234.2021484,2.1142578.6054688.6152344.4038086,1.0693359.9472656,1.3623047,1.6308594s.4394531,1.7480469.4394531,3.1933594v5.46875h-1.3671875v-5.0683594c0-1.2236328-.0507812-2.0410156-.1523438-2.4511719-.1582031-.703125-.4619141-1.2319336-.9111328-1.5869141-.4492188-.3544922-1.0356445-.5322266-1.7583008-.5322266-.8266602,0-1.5678711.2734375-2.222168.8203125s-1.0859375,1.2241211-1.2939453,2.03125c-.1303711.5273438-.1953125,1.4912109-.1953125,2.890625v3.8964844h-1.3671875V6.1315734Z"/>
      </g>
    </g>
  </g>
</svg>