<?xml version="1.0" encoding="UTF-8"?>
<svg id="_レイヤー_2" data-name="レイヤー 2" xmlns="http://www.w3.org/2000/svg" viewBox="0 0 197.9544823 18.8966404">
  <defs>
    <style>
      .cls-1 {
        fill: #a79b7f;
        stroke-width: 0px;
      }

      .cls-2 {
        fill: none;
        stroke: #a79b7f;
        stroke-miterlimit: 10;
      }
    </style>
  </defs>
  <g id="_レイヤー_1-2" data-name="レイヤー 1">
    <g>
      <path class="cls-1" d="m33.6125102,13.4375086l1.2207031-.7324219c.859375,1.5820312,1.8520508,2.3730469,2.9785156,2.3730469.4819336,0,.934082-.1123047,1.3574219-.3369141s.7456055-.5256348.9667969-.9033203c.2211914-.3774414.3320312-.777832.3320312-1.2011719,0-.4816895-.1625977-.9536133-.4882812-1.4160156-.4492188-.6379395-1.2695312-1.40625-2.4609375-2.3046875-1.1977539-.9047852-1.9433594-1.559082-2.2363281-1.9628906-.5078125-.677002-.7617188-1.4094238-.7617188-2.1972656,0-.625.1499023-1.1945801.4492188-1.7089844.2993164-.5141602.7211914-.9194336,1.2646484-1.2158203.543457-.2961426,1.1342773-.4443359,1.7724609-.4443359.6772461,0,1.3100586.1677246,1.8994141.5029297.5893555.3354492,1.2124023.9521484,1.8701172,1.8505859l-1.171875.8886719c-.5405273-.7160645-1.0009766-1.1879883-1.3818359-1.4160156-.3808594-.2277832-.7958984-.3417969-1.2451172-.3417969-.5795898,0-1.0532227.1757812-1.4208984.5273438s-.5517578.784668-.5517578,1.2988281c0,.3125.0649414.6152344.1953125.9082031s.3676758.6120605.7128906.9570312c.1889648.182373.8071289.6608887,1.8554688,1.4355469,1.2436523.9179688,2.0961914,1.7351074,2.5585938,2.4511719.4624023.7163086.6933594,1.4355469.6933594,2.1582031,0,1.041748-.3955078,1.9467773-1.1865234,2.7148438-.7910156.7683105-1.7529297,1.1523438-2.8857422,1.1523438-.8725586,0-1.6635742-.2329102-2.3730469-.6982422s-1.3637695-1.2451172-1.9628906-2.3388672Z"/>
      <path class="cls-1" d="m56.2785258,12.5878993l1.1523438.6054688c-.3779297.7421875-.8144531,1.3413086-1.3100586,1.796875-.4951172.4558105-1.0522461.8024902-1.6708984,1.0400391-.6196289.2375488-1.3203125.3564453-2.1020508.3564453-1.7333984,0-3.0883789-.5678711-4.065918-1.7041016-.9775391-1.1359863-1.4663086-2.420166-1.4663086-3.8525391,0-1.3476562.4135742-2.5488281,1.2412109-3.6035156,1.0493164-1.3410645,2.4536133-2.0117188,4.2128906-2.0117188,1.8115234,0,3.2583008.6870117,4.3398438,2.0605469.769043.9702148,1.159668,2.1811523,1.1728516,3.6328125h-9.5605469c.0258789,1.2341309.4204102,2.2458496,1.1831055,3.0349121.7626953.7893066,1.7045898,1.1838379,2.8256836,1.1838379.5410156,0,1.0668945-.0939941,1.5791016-.2821045.5112305-.1879883.9467773-.4378662,1.3051758-.7491455s.7460938-.8138428,1.1635742-1.5078125Zm0-2.8613281c-.1826172-.7290039-.4482422-1.3117676-.796875-1.7480469-.3491211-.4360352-.8100586-.7875977-1.3833008-1.0546875-.5742188-.2668457-1.1767578-.4003906-1.809082-.4003906-1.0429688,0-1.9394531.3354492-2.6889648,1.0058594-.5478516.4882812-.9614258,1.2207031-1.2416992,2.1972656h7.9199219Z"/>
      <path class="cls-1" d="m73.1437602,7.6953211l-1.0839844.6738281c-.9365234-1.2434082-2.2143555-1.8652344-3.8334961-1.8652344-1.2939453,0-2.3686523.4162598-3.2236328,1.2486572-.8554688.8323975-1.2827148,1.8435059-1.2827148,3.0335693,0,.7739258.1967773,1.5024414.590332,2.1850586.3930664.6828613.9331055,1.2127686,1.6191406,1.5899658s1.4550781.5657959,2.3066406.5657959c1.5605469,0,2.8349609-.621582,3.8237305-1.8652344l1.0839844.7128906c-.5078125.7647705-1.1899414,1.3580322-2.0458984,1.7796631-.855957.4215088-1.8310547.6324463-2.9248047.6324463-1.6796875,0-3.0727539-.5336914-4.1796875-1.6015625-1.1069336-1.067627-1.6601562-2.3664551-1.6601562-3.8964844,0-1.0285645.2587891-1.9838867.7763672-2.8662109.5175781-.8820801,1.2290039-1.5705566,2.1337891-2.0654297.9047852-.4946289,1.9174805-.7421875,3.0371094-.7421875.703125,0,1.3818359.1074219,2.0361328.3222656s1.2094727.494873,1.6650391.8398438c.4555664.3452148.8432617.784668,1.1621094,1.3183594Z"/>
      <path class="cls-1" d="m79.4621195,1.5429774h1.3671875v3.9453125h2.1679688v1.1816406h-2.1679688v9.4433594h-1.3671875V6.6699305h-1.8652344v-1.1816406h1.8652344V1.5429774Z"/>
      <path class="cls-1" d="m88.0216899,1.1132899c.3110352,0,.5766602.1108398.7973633.3320312.2202148.2214355.3305664.4882812.3305664.8007812,0,.3061523-.1103516.5698242-.3305664.7910156-.2207031.2214355-.4863281.3320312-.7973633.3320312-.3046875,0-.5673828-.1105957-.7875977-.3320312-.2207031-.2211914-.3305664-.4848633-.3305664-.7910156,0-.3125.1098633-.5793457.3305664-.8007812.2202148-.2211914.4829102-.3320312.7875977-.3320312Zm-.6787109,4.375h1.3671875v10.625h-1.3671875V5.4882899Z"/>
      <path class="cls-1" d="m99.0812602,5.2148524c1.637207,0,2.9936523.5925293,4.0698242,1.7773438.9780273,1.0808105,1.4672852,2.3601074,1.4672852,3.8378906,0,1.484375-.5170898,2.7817383-1.550293,3.8916016-1.0341797,1.1101074-2.3632812,1.6650391-3.9868164,1.6650391-1.6303711,0-2.9624023-.5549316-3.996582-1.6650391-1.0332031-1.1098633-1.550293-2.4072266-1.550293-3.8916016,0-1.4711914.4887695-2.7473145,1.4672852-3.828125,1.0761719-1.1914062,2.4360352-1.7871094,4.0795898-1.7871094Zm-.0048828,1.3378906c-1.1367188,0-2.1137695.4199219-2.9301758,1.2597656-.8168945.8398438-1.2250977,1.8554688-1.2250977,3.046875,0,.7683105.1860352,1.484375.5585938,2.1484375s.8754883,1.1767578,1.5092773,1.5380859,1.3295898.5419922,2.0874023.5419922,1.4536133-.1806641,2.0874023-.5419922,1.1367188-.8740234,1.5092773-1.5380859.5585938-1.380127.5585938-2.1484375c0-1.1914062-.4101562-2.2070312-1.2299805-3.046875-.8203125-.8398438-1.7949219-1.2597656-2.925293-1.2597656Z"/>
      <path class="cls-1" d="m109.6476664,5.4882899h1.3671875v1.9042969c.546875-.7290039,1.1523438-1.2744141,1.8164062-1.6357422s1.3867188-.5419922,2.1679688-.5419922c.7944336,0,1.4990234.2019043,2.1142578.6054688.6152344.4038086,1.0693359.9472656,1.3623047,1.6308594s.4394531,1.7480469.4394531,3.1933594v5.46875h-1.3671875v-5.0683594c0-1.223877-.0507812-2.0410156-.1518555-2.4511719-.1586914-.703125-.4628906-1.2319336-.9121094-1.5869141-.4492188-.3547363-1.0351562-.5322266-1.7578125-.5322266-.8271484,0-1.5678711.2734375-2.222168.8203125s-1.0854492,1.2241211-1.2939453,2.03125c-.1303711.5273438-.1953125,1.4909668-.1953125,2.890625v3.8964844h-1.3671875V5.4882899Z"/>
      <g>
        <polyline class="cls-2" points=".3253627 9.5638229 10.7110352 .6633814 20.7421057 9.5638229"/>
        <polyline class="cls-2" points="3.2517626 10.104001 3.2517626 18.3966404 17.8157059 18.3966404 17.8157059 10.104001"/>
        <path class="cls-2" d="m8.3899762,18.3966404v-4.9667792c0-.6168498.5000556-1.1169054,1.1169054-1.1169054h2.0537052c.6168498,0,1.1169054.5000556,1.1169054,1.1169054v4.9667792"/>
        <polyline class="cls-2" points="14.923334 .6633814 17.8497338 .6633814 17.8497338 4.2022835"/>
      </g>
      <polyline class="cls-1" points="197.9544823 10.104001 192.8428325 15.2156507 187.7311827 10.104001"/>
    </g>
  </g>
</svg>